<?xml version="1.0" encoding="UTF-8"?>
<svg version="1.1" xmlns="http://www.w3.org/2000/svg" width="127" height="132">
<path d="M0 0 C4.63766409 2.35404208 7.1856131 5.58044213 8.92578125 10.3515625 C9.48385138 13.05205439 9.73192395 15.58909592 9.92578125 18.3515625 C10.93640625 18.2896875 11.94703125 18.2278125 12.98828125 18.1640625 C18.62249601 18.43235844 22.32266432 20.03992138 26.67578125 23.6015625 C29.994765 27.65809819 32.16574536 30.78210063 31.671875 36.0703125 C31.52878906 37.029375 31.38570312 37.9884375 31.23828125 38.9765625 C30.80226846 41.77665546 30.80226846 41.77665546 30.92578125 44.3515625 C33.60869921 47.19845878 33.60869921 47.19845878 36.92578125 49.3515625 C40.19197172 54.9040863 40.66452653 60.06716772 39.92578125 66.3515625 C38.28270778 71.62669313 36.02342988 74.6852453 31.92578125 78.3515625 C31.59578125 78.6815625 31.26578125 79.0115625 30.92578125 79.3515625 C31.09823442 80.87688106 31.31458418 82.39730683 31.55078125 83.9140625 C32.09560366 89.0751505 31.73672852 92.9167234 28.92578125 97.3515625 C25.92138517 100.60396297 23.14574858 102.94490672 18.92578125 104.3515625 C17.19782773 104.41959217 15.4674276 104.43651895 13.73828125 104.4140625 C12.38669922 104.40052734 12.38669922 104.40052734 11.0078125 104.38671875 C10.32074219 104.37511719 9.63367188 104.36351563 8.92578125 104.3515625 C9.01859375 106.1459375 9.01859375 106.1459375 9.11328125 107.9765625 C9.09443034 113.31137136 7.47679169 116.70931615 3.80078125 120.6015625 C-0.77602594 123.38744514 -5.21716222 124.8980912 -10.5859375 123.87109375 C-14.04845567 122.77267816 -16.48049397 121.94528728 -19.07421875 119.3515625 C-19.30126953 117.10498047 -19.30126953 117.10498047 -19.26953125 114.34375 C-19.26308594 113.35761719 -19.25664063 112.37148437 -19.25 111.35546875 C-19.23324219 110.32292969 -19.21648437 109.29039063 -19.19921875 108.2265625 C-19.19019531 107.18628906 -19.18117188 106.14601563 -19.171875 105.07421875 C-19.14825622 102.49977158 -19.11532024 99.92578038 -19.07421875 97.3515625 C-16.74176868 97.28736663 -14.40675854 97.29071364 -12.07421875 97.3515625 C-11.07421875 98.3515625 -10.07421875 99.3515625 -9.07421875 100.3515625 C-4.40923365 100.85704845 -4.40923365 100.85704845 -0.13671875 99.2265625 C1.4130264 96.49171811 1.24740201 94.4391218 0.92578125 91.3515625 C-0.74076483 88.22135042 -0.74076483 88.22135042 -3.38671875 87.4765625 C-6.82386422 87.31669527 -8.32644406 88.36705856 -11.07421875 90.3515625 C-11.56921875 90.8465625 -11.56921875 90.8465625 -12.07421875 91.3515625 C-14.51171875 91.5390625 -14.51171875 91.5390625 -17.07421875 91.3515625 C-19.07421875 89.3515625 -19.07421875 89.3515625 -19.31713867 87.04492188 C-19.31302979 86.10455078 -19.3089209 85.16417969 -19.3046875 84.1953125 C-19.30275391 83.17308594 -19.30082031 82.15085937 -19.29882812 81.09765625 C-19.28658203 80.02644531 -19.27433594 78.95523438 -19.26171875 77.8515625 C-19.26107422 76.78035156 -19.26042969 75.70914063 -19.25976562 74.60546875 C-19.21451989 66.63216478 -19.21451989 66.63216478 -18.07421875 64.3515625 C-16.07467129 64.30901894 -14.07380239 64.31075467 -12.07421875 64.3515625 C-9.86115964 66.56462161 -10.62092677 71.57096617 -10.453125 74.56640625 C-10.34192935 77.48740683 -10.34192935 77.48740683 -8.07421875 79.3515625 C-5.54271151 79.66429239 -5.54271151 79.66429239 -2.69921875 79.7265625 C2.15507072 80.05438465 3.60411771 80.79263728 6.92578125 84.3515625 C10.55228076 84.44072404 10.55228076 84.44072404 13.92578125 83.3515625 C16.28717427 80.45694349 16.28717427 80.45694349 15.73828125 76.7890625 C15.27738363 73.09330498 15.27738363 73.09330498 11.92578125 71.3515625 C6.88576717 71.58369216 6.88576717 71.58369216 2.92578125 74.3515625 C-0.63671875 74.5390625 -0.63671875 74.5390625 -4.07421875 74.3515625 C-6.55020608 71.87557517 -5.25973135 65.24296092 -5.26171875 61.9140625 C-5.27396484 60.83833984 -5.28621094 59.76261719 -5.29882812 58.65429688 C-5.30076172 57.62755859 -5.30269531 56.60082031 -5.3046875 55.54296875 C-5.30879639 54.59623291 -5.31290527 53.64949707 -5.31713867 52.67407227 C-5.07421875 50.3515625 -5.07421875 50.3515625 -3.07421875 48.3515625 C-0.13671875 48.0390625 -0.13671875 48.0390625 2.92578125 48.3515625 C3.40015625 48.8465625 3.87453125 49.3415625 4.36328125 49.8515625 C5.99165875 51.71390741 5.99165875 51.71390741 9.42578125 51.7890625 C12.90739536 51.68455135 12.90739536 51.68455135 14.86328125 49.6640625 C16.60475857 45.87378832 16.22379916 43.24561624 14.92578125 39.3515625 C10.20081095 38.36022886 10.20081095 38.36022886 5.55078125 39.1640625 C3.77489881 40.27141977 3.77489881 40.27141977 2.92578125 42.3515625 C0.4921875 42.6953125 0.4921875 42.6953125 -2.51171875 42.8515625 C-6.79751104 42.89832081 -6.79751104 42.89832081 -10.07421875 45.3515625 C-10.46305071 48.17829987 -10.46305071 48.17829987 -10.57421875 51.3515625 C-10.85199653 57.12934028 -10.85199653 57.12934028 -13.07421875 59.3515625 C-17.62977431 58.79600694 -17.62977431 58.79600694 -19.07421875 57.3515625 C-19.16148098 55.57085004 -19.18120916 53.7867311 -19.171875 52.00390625 C-19.16865234 50.92431641 -19.16542969 49.84472656 -19.16210938 48.73242188 C-19.15373047 47.59611328 -19.14535156 46.45980469 -19.13671875 45.2890625 C-19.13220703 44.14888672 -19.12769531 43.00871094 -19.12304688 41.83398438 C-19.11121622 39.00645899 -19.09473285 36.1790361 -19.07421875 33.3515625 C-15.35546875 31.3046875 -15.35546875 31.3046875 -12.82421875 31.7265625 C-12.24671875 31.9328125 -11.66921875 32.1390625 -11.07421875 32.3515625 C-11.07421875 33.0115625 -11.07421875 33.6715625 -11.07421875 34.3515625 C-5.72576273 35.46607365 -5.72576273 35.46607365 -0.57421875 34.3515625 C1.70597265 31.3113073 1.38651707 29.03744907 0.92578125 25.3515625 C-0.05470813 23.28753565 -0.05470813 23.28753565 -2.07421875 22.3515625 C-5.07421875 21.8515625 -5.07421875 21.8515625 -8.07421875 22.3515625 C-8.52796875 22.8465625 -8.98171875 23.3415625 -9.44921875 23.8515625 C-12.17126785 26.36422321 -15.48022668 25.43799117 -19.07421875 25.3515625 C-19.21961828 21.93534462 -19.308316 18.51992259 -19.38671875 15.1015625 C-19.42861328 14.13347656 -19.47050781 13.16539063 -19.51367188 12.16796875 C-19.63784785 4.96576192 -19.63784785 4.96576192 -16.6796875 1.7421875 C-11.28692084 -1.13611075 -5.99318307 -1.87357512 0 0 Z " fill="#B70F11" transform="translate(86.07421875,4.6484375)"/>
<path d="M0 0 C0.81082031 -0.02835937 1.62164062 -0.05671875 2.45703125 -0.0859375 C5.1875 0.375 5.1875 0.375 12.1875 4.375 C12.1875 11.635 12.1875 18.895 12.1875 26.375 C5.1875 26.375 5.1875 26.375 3.1875 24.8125 C1.10687322 23.00803017 1.10687322 23.00803017 -2.4375 23.5 C-6.07185918 24.04230764 -6.07185918 24.04230764 -7.8125 27.375 C-7.73082511 30.94676115 -7.73082511 30.94676115 -6.8125 34.375 C-3.91788099 36.73639302 -3.91788099 36.73639302 -0.25 36.1875 C3.44575752 35.72660238 3.44575752 35.72660238 5.1875 32.375 C11.0625 33.25 11.0625 33.25 12.1875 34.375 C12.44006877 38.34775815 12.37272451 42.33266175 12.375 46.3125 C12.38724609 47.43591797 12.39949219 48.55933594 12.41210938 49.71679688 C12.41404297 50.78865234 12.41597656 51.86050781 12.41796875 52.96484375 C12.42207764 53.95347412 12.42618652 54.94210449 12.43041992 55.96069336 C12.1875 58.375 12.1875 58.375 10.1875 60.375 C7.625 60.125 7.625 60.125 5.1875 59.375 C3.55492747 56.10985494 3.78948086 52.51341388 3.56640625 48.90625 C3.41934672 46.2104242 3.41934672 46.2104242 1.1875 44.375 C-1.3452019 44.03180369 -3.8498984 43.9329391 -6.40234375 43.81640625 C-9.23062986 43.29842192 -9.93457707 42.4621772 -11.8125 40.375 C-15.16481148 39.37643913 -16.939115 38.95011 -20.125 40.5 C-22.23033331 42.83925923 -22.65970878 44.24278003 -22.8125 47.375 C-21.83519781 50.08137529 -21.40737555 51.07756222 -18.8125 52.375 C-15.85445427 52.70840471 -15.85445427 52.70840471 -12.8125 52.375 C-12.338125 51.88 -11.86375 51.385 -11.375 50.875 C-9.8125 49.375 -9.8125 49.375 -6.1875 49.125 C-2.8125 49.375 -2.8125 49.375 -1.8125 50.375 C-1.71303547 52.14359193 -1.68169783 53.91611451 -1.6796875 55.6875 C-1.67775391 57.30011719 -1.67775391 57.30011719 -1.67578125 58.9453125 C-1.67964844 60.07710937 -1.68351562 61.20890625 -1.6875 62.375 C-1.68169922 64.07269531 -1.68169922 64.07269531 -1.67578125 65.8046875 C-1.67707031 66.87976563 -1.67835937 67.95484375 -1.6796875 69.0625 C-1.68081543 70.05636719 -1.68194336 71.05023438 -1.68310547 72.07421875 C-1.8125 74.375 -1.8125 74.375 -2.8125 75.375 C-6.1875 75.625 -6.1875 75.625 -9.8125 75.375 C-10.83269573 74.3956121 -11.83399805 73.39604551 -12.8125 72.375 C-16.24452271 72.08899811 -18.53679875 72.28309958 -21.8125 73.375 C-22.50834017 77.39540985 -22.9825097 80.45763419 -21.8125 84.375 C-18.80187296 84.96683267 -15.88655064 85.42893071 -12.8125 85.375 C-12.19375 84.75625 -11.575 84.1375 -10.9375 83.5 C-7.77187037 80.33437037 -4.51079547 80.75174217 -0.17578125 80.55078125 C2.14326822 80.63680146 2.14326822 80.63680146 3.1875 79.375 C3.47224016 76.30613383 3.63621799 73.23724703 3.80859375 70.16015625 C4.1875 67.375 4.1875 67.375 6.1875 65.375 C8.75 65.1875 8.75 65.1875 11.1875 65.375 C13.72059722 67.90809722 12.37305171 74.90494908 12.375 78.3125 C12.38724609 79.43591797 12.39949219 80.55933594 12.41210938 81.71679688 C12.41404297 82.78865234 12.41597656 83.86050781 12.41796875 84.96484375 C12.42207764 85.95347412 12.42618652 86.94210449 12.43041992 87.96069336 C12.1875 90.375 12.1875 90.375 10.1875 92.375 C7.5625 92.5 7.5625 92.5 5.1875 92.375 C4.8575 91.385 4.5275 90.395 4.1875 89.375 C0.55007951 88.44449708 -1.18948512 88.07041495 -4.625 89.75 C-6.68056083 91.19440721 -6.68056083 91.19440721 -7.8125 92.375 C-8.22771605 96.52232802 -8.22771605 96.52232802 -6.5625 100.1875 C-4.50000526 101.58705 -3.31753771 102.22764484 -0.8125 102.375 C1.43106294 101.22713059 3.3970767 100.1654233 5.1875 98.375 C7.52047433 98.33407063 9.85455225 98.33258277 12.1875 98.375 C12.3618959 101.95771776 12.46837658 105.53934602 12.5625 109.125 C12.61277344 110.14078125 12.66304687 111.1565625 12.71484375 112.203125 C12.77089463 115.04303646 12.74912794 117.58934821 12.1875 120.375 C8.20267261 124.13259801 4.62404031 125.1842442 -0.8125 125.375 C-5.81672674 124.42592251 -9.24268508 123.04397644 -12.8125 119.375 C-15.45719957 114.54158354 -16.14801114 110.85501528 -15.8125 105.375 C-16.369375 105.42140625 -16.92625 105.4678125 -17.5 105.515625 C-23.47345185 105.79815313 -27.99170904 105.07443306 -32.8125 101.375 C-36.86193223 97.19779443 -38.11108409 93.33954274 -38.1875 87.5625 C-38.07498716 84.49436138 -37.78933044 82.30549131 -36.8125 79.375 C-37.39 79.148125 -37.9675 78.92125 -38.5625 78.6875 C-42.54328677 76.36537439 -44.39108535 73.39843558 -46.125 69.1875 C-47.24472345 62.97812453 -47.02248304 57.08822917 -44 51.4375 C-41.8125 48.375 -41.8125 48.375 -39.67578125 47.109375 C-37.46129468 45.43971964 -37.46129468 45.43971964 -37.5625 42.23046875 C-37.645 41.02003906 -37.7275 39.80960938 -37.8125 38.5625 C-38.00109329 31.78012634 -38.00109329 31.78012634 -36.125 27.75 C-31.19603839 22.68782322 -27.22837085 19.48699577 -20 19.25 C-18.4221875 19.311875 -18.4221875 19.311875 -16.8125 19.375 C-16.73773438 18.73433594 -16.66296875 18.09367187 -16.5859375 17.43359375 C-15.6039859 10.97389251 -13.88166027 6.64376654 -8.8125 2.375 C-5.82876499 0.54169478 -3.48831626 0.05493411 0 0 Z " fill="#0C3B9A" transform="translate(48.8125,3.625)"/>
<path d="M0 0 C1.99954746 -0.04254356 4.00041636 -0.04080783 6 0 C8.21305911 2.21305911 7.45329198 7.21940367 7.62109375 10.21484375 C7.7322894 13.13584433 7.7322894 13.13584433 10 15 C11.78633815 15.1729629 13.58088959 15.2668055 15.375 15.3125 C20.65646409 15.67244251 20.65646409 15.67244251 23.6875 18.5625 C24.120625 19.366875 24.55375 20.17125 25 21 C24.51917969 21.54140625 24.03835937 22.0828125 23.54296875 22.640625 C21.68676442 25.47897288 21.51262344 27.38792626 21.3125 30.75 C21.24675781 31.73484375 21.18101563 32.7196875 21.11328125 33.734375 C21.07589844 34.48203125 21.03851563 35.2296875 21 36 C18.525 36.495 18.525 36.495 16 37 C16.495 36.46375 16.99 35.9275 17.5 35.375 C19.41127245 32.34881863 19.37478243 30.52295483 19 27 C17.33345392 23.86978792 17.33345392 23.86978792 14.6875 23.125 C11.25035453 22.96513277 9.74777469 24.01549606 7 26 C6.67 26.33 6.34 26.66 6 27 C3.5625 27.1875 3.5625 27.1875 1 27 C-1 25 -1 25 -1.24291992 22.69335938 C-1.23881104 21.75298828 -1.23470215 20.81261719 -1.23046875 19.84375 C-1.22853516 18.82152344 -1.22660156 17.79929687 -1.22460938 16.74609375 C-1.21236328 15.67488281 -1.20011719 14.60367188 -1.1875 13.5 C-1.18685547 12.42878906 -1.18621094 11.35757813 -1.18554688 10.25390625 C-1.14030114 2.28060228 -1.14030114 2.28060228 0 0 Z " fill="#B52829" transform="translate(68,69)"/>
<path d="M0 0 C0.99 0.33 1.98 0.66 3 1 C2.67 1.66 2.34 2.32 2 3 C1.01 3 0.02 3 -1 3 C-0.01 3.33 0.98 3.66 2 4 C2 4.66 2 5.32 2 6 C2.66 6 3.32 6 4 6 C4 6.66 4 7.32 4 8 C3.360625 8.28875 2.72125 8.5775 2.0625 8.875 C-0.15206079 9.82823451 -0.15206079 9.82823451 -1 12 C-3.43359375 12.34375 -3.43359375 12.34375 -6.4375 12.5 C-10.72329229 12.54675831 -10.72329229 12.54675831 -14 15 C-14.38883196 17.82673737 -14.38883196 17.82673737 -14.5 21 C-14.77777778 26.77777778 -14.77777778 26.77777778 -17 29 C-21.55555556 28.44444444 -21.55555556 28.44444444 -23 27 C-23.08726223 25.21928754 -23.10699041 23.4351686 -23.09765625 21.65234375 C-23.09443359 20.57275391 -23.09121094 19.49316406 -23.08789062 18.38085938 C-23.07951172 17.24455078 -23.07113281 16.10824219 -23.0625 14.9375 C-23.05798828 13.79732422 -23.05347656 12.65714844 -23.04882812 11.48242188 C-23.03699747 8.65489649 -23.0205141 5.8274736 -23 3 C-19.28125 0.953125 -19.28125 0.953125 -16.75 1.375 C-16.1725 1.58125 -15.595 1.7875 -15 2 C-15 2.66 -15 3.32 -15 4 C-9.59829602 5.26558524 -9.59829602 5.26558524 -4.6875 3.5625 C-4.130625 3.046875 -3.57375 2.53125 -3 2 C-2.01 2 -1.02 2 0 2 C0 1.34 0 0.68 0 0 Z " fill="#BF4C4E" transform="translate(90,35)"/>
<path d="M0 0 C2.4375 0.1875 2.4375 0.1875 3.4375 1.1875 C3.69006877 5.16025815 3.62272451 9.14516175 3.625 13.125 C3.63724609 14.24841797 3.64949219 15.37183594 3.66210938 16.52929688 C3.66500977 18.13708008 3.66500977 18.13708008 3.66796875 19.77734375 C3.67207764 20.76597412 3.67618652 21.75460449 3.68041992 22.77319336 C3.4375 25.1875 3.4375 25.1875 1.4375 27.1875 C-1.1875 27.3125 -1.1875 27.3125 -3.5625 27.1875 C-3.8925 26.1975 -4.2225 25.2075 -4.5625 24.1875 C-7.96044515 23.31825822 -9.97803717 22.97496806 -13.3125 24.1875 C-16.31199792 26.85372037 -16.76095209 29.32549642 -17.5625 33.1875 C-17.8925 33.1875 -18.2225 33.1875 -18.5625 33.1875 C-19.6875 25.4375 -19.6875 25.4375 -18.5625 23.1875 C-19.39583333 21.02083333 -19.39583333 21.02083333 -21.5625 20.1875 C-20.25 18.25 -20.25 18.25 -17.5625 16.1875 C-14.67194362 15.69871787 -11.85326223 15.49899229 -8.92578125 15.36328125 C-6.60673178 15.44930146 -6.60673178 15.44930146 -5.5625 14.1875 C-5.27775984 11.11863383 -5.11378201 8.04974703 -4.94140625 4.97265625 C-4.4439094 1.31579794 -3.74242143 0.27383571 0 0 Z " fill="#13409C" transform="translate(57.5625,68.8125)"/>
<path d="M0 0 C0.680625 0.680625 1.36125 1.36125 2.0625 2.0625 C4.92670827 4.34837399 4.92670827 4.34837399 8.6875 3.9375 C12.25994448 3.31375865 12.25994448 3.31375865 14 0 C19.875 0.875 19.875 0.875 21 2 C21.25256877 5.97275815 21.18522451 9.95766175 21.1875 13.9375 C21.19974609 15.06091797 21.21199219 16.18433594 21.22460938 17.34179688 C21.22750977 18.94958008 21.22750977 18.94958008 21.23046875 20.58984375 C21.23457764 21.57847412 21.23868652 22.56710449 21.24291992 23.58569336 C21 26 21 26 19 28 C16.4375 27.75 16.4375 27.75 14 27 C12.36742747 23.73485494 12.60198086 20.13841388 12.37890625 16.53125 C12.23184672 13.8354242 12.23184672 13.8354242 10 12 C7.46565987 11.6957053 4.96069737 11.62170153 2.41015625 11.5390625 C0 11 0 11 -1.81640625 8.9609375 C-2.20699219 8.31382813 -2.59757812 7.66671875 -3 7 C-2.34 7 -1.68 7 -1 7 C-0.67 4.69 -0.34 2.38 0 0 Z " fill="#0E3C9B" transform="translate(40,36)"/>
<path d="M0 0 C1.65 0 3.3 0 5 0 C5.33 1.32 5.66 2.64 6 4 C7.093125 3.938125 8.18625 3.87625 9.3125 3.8125 C13 4 13 4 14.9375 5.4375 C16 7 16 7 16 8 C14.906875 8.268125 13.81375 8.53625 12.6875 8.8125 C9.26833673 9.91358648 8.22408019 10.42474926 6 13 C5.34 13 4.68 13 4 13 C4 13.66 4 14.32 4 15 C3.01 15.495 3.01 15.495 2 16 C2.66 16.33 3.32 16.66 4 17 C4 18.98 4 20.96 4 23 C2.68 23 1.36 23 0 23 C0 15.41 0 7.82 0 0 Z " fill="#B60102" transform="translate(69,38)"/>
<path d="M0 0 C3.70986572 -0.28783441 7.29998705 -0.45251957 11 0 C13.6875 2.5 13.6875 2.5 15 5 C14.51917969 5.54140625 14.03835937 6.0828125 13.54296875 6.640625 C11.68676442 9.47897288 11.51262344 11.38792626 11.3125 14.75 C11.24675781 15.73484375 11.18101563 16.7196875 11.11328125 17.734375 C11.07589844 18.48203125 11.03851563 19.2296875 11 20 C9.35 20.33 7.7 20.66 6 21 C6.7425 20.195625 6.7425 20.195625 7.5 19.375 C9.41127245 16.34881863 9.37478243 14.52295483 9 11 C7.33345392 7.86978792 7.33345392 7.86978792 4.6875 7.125 C1.25035453 6.96513277 -0.25222531 8.01549606 -3 10 C-3.33 10.33 -3.66 10.66 -4 11 C-5.66617115 11.04063832 -7.33388095 11.042721 -9 11 C-7.6875 9.5 -7.6875 9.5 -6 8 C-5.01 8 -4.02 8 -3 8 C-2.690625 7.05125 -2.38125 6.1025 -2.0625 5.125 C-1 2 -1 2 0 0 Z " fill="#BE3537" transform="translate(78,85)"/>
<path d="M0 0 C1.65 0 3.3 0 5 0 C5.33 0.99 5.66 1.98 6 3 C7.32 2.67 8.64 2.34 10 2 C10 2.66 10 3.32 10 4 C10.66 4.33 11.32 4.66 12 5 C12 5.99 12 6.98 12 8 C12.99 8.33 13.98 8.66 15 9 C15 9.66 15 10.32 15 11 C13.1875 11.625 13.1875 11.625 11 12 C10.01 11.34 9.02 10.68 8 10 C7.67 10.66 7.34 11.32 7 12 C7 11.34 7 10.68 7 10 C5.68 10.99 4.36 11.98 3 13 C2.01 8.71 1.02 4.42 0 0 Z " fill="#B50203" transform="translate(102,43)"/>
<path d="M0 0 C0.66 0 1.32 0 2 0 C2.05785647 3.95827235 2.09354717 7.9164367 2.125 11.875 C2.14175781 13.00292969 2.15851562 14.13085938 2.17578125 15.29296875 C2.18222656 16.36933594 2.18867187 17.44570313 2.1953125 18.5546875 C2.20578613 19.54968262 2.21625977 20.54467773 2.22705078 21.56982422 C2 24 2 24 0 26 C-2.5625 25.75 -2.5625 25.75 -5 25 C-6.35091528 22.29816945 -6.33858058 19.88191794 -6.5625 16.875 C-6.64628906 15.77929688 -6.73007812 14.68359375 -6.81640625 13.5546875 C-6.87699219 12.71164063 -6.93757813 11.86859375 -7 11 C-6.34 11 -5.68 11 -5 11 C-4.34 13.97 -3.68 16.94 -3 20 C-2.34 19.67 -1.68 19.34 -1 19 C-0.67 12.73 -0.34 6.46 0 0 Z " fill="#3C5A9D" transform="translate(59,38)"/>
<path d="M0 0 C0.7425 0.391875 1.485 0.78375 2.25 1.1875 C1.11475876 5.02985498 0.1241331 8.3133669 -2.75 11.1875 C-4.07 11.1875 -5.39 11.1875 -6.75 11.1875 C-7.36871419 2.98953692 -7.36871419 2.98953692 -5.0625 0 C-2.75 -0.8125 -2.75 -0.8125 0 0 Z " fill="#B40203" transform="translate(75.75,83.8125)"/>
<path d="M0 0 C0.99 1.0209375 0.99 1.0209375 2 2.0625 C6.17990592 4.76202257 8.22107226 3.9719853 13 3 C13 3.66 13 4.32 13 5 C10.69 5.66 8.38 6.32 6 7 C6 7.99 6 8.98 6 10 C6.99 10.33 7.98 10.66 9 11 C5.96663814 11.22893297 3.02534949 11.36475845 0 11 C-2.0625 9 -2.0625 9 -3 7 C-2.34 7 -1.68 7 -1 7 C-0.67 4.69 -0.34 2.38 0 0 Z " fill="#2F559F" transform="translate(40,36)"/>
<path d="M0 0 C0.33 0.66 0.66 1.32 1 2 C-1.53616796 6.13301445 -3.84772952 9.40483095 -8 12 C-10.3125 11.75 -10.3125 11.75 -12 11 C-11.42655063 8.13275314 -11.1385485 7.1385485 -9 5 C-6.375 4.875 -6.375 4.875 -4 5 C-3.896875 4.360625 -3.79375 3.72125 -3.6875 3.0625 C-3.460625 2.381875 -3.23375 1.70125 -3 1 C-2.01 0.67 -1.02 0.34 0 0 Z " fill="#BD2023" transform="translate(116,96)"/>
<path d="M0 0 C0.33 0 0.66 0 1 0 C1 6.93 1 13.86 1 21 C2.32 21 3.64 21 5 21 C5 19.02 5 17.04 5 15 C4.01 14.67 3.02 14.34 2 14 C2.99 13.67 3.98 13.34 5 13 C5 12.34 5 11.68 5 11 C5.66 11 6.32 11 7 11 C7.05391993 12.79133978 7.09275571 14.58313899 7.125 16.375 C7.14820312 17.37273438 7.17140625 18.37046875 7.1953125 19.3984375 C7 22 7 22 5 24 C3.35 23.67 1.7 23.34 0 23 C0 15.41 0 7.82 0 0 Z " fill="#AC2729" transform="translate(68,40)"/>
<path d="M0 0 C0.66 0 1.32 0 2 0 C2.02886984 3.97915159 2.04675406 7.95827653 2.0625 11.9375 C2.07087891 13.07380859 2.07925781 14.21011719 2.08789062 15.38085938 C2.09111328 16.46044922 2.09433594 17.54003906 2.09765625 18.65234375 C2.10289307 19.65257568 2.10812988 20.65280762 2.11352539 21.68334961 C2 24 2 24 1 25 C-0.66617115 25.04063832 -2.33388095 25.042721 -4 25 C-4.33 24.34 -4.66 23.68 -5 23 C-3.35 23 -1.7 23 0 23 C0 15.41 0 7.82 0 0 Z " fill="#294B90" transform="translate(59,70)"/>
<path d="M0 0 C0.66 0 1.32 0 2 0 C2 6.93 2 13.86 2 21 C0.35 21 -1.3 21 -3 21 C-3.33 20.01 -3.66 19.02 -4 18 C-3.53980469 17.42765625 -3.07960937 16.8553125 -2.60546875 16.265625 C-0.37707468 13.12093264 -0.48908813 10.56430364 -0.3125 6.75 C-0.24675781 5.48671875 -0.18101563 4.2234375 -0.11328125 2.921875 C-0.05720703 1.47554687 -0.05720703 1.47554687 0 0 Z " fill="#0B3183" transform="translate(59,9)"/>
<path d="M0 0 C3.82485798 0.03427292 3.82485798 0.03427292 6.125 1.6875 C7.125 3.25 7.125 3.25 7.125 4.25 C6.031875 4.53875 4.93875 4.8275 3.8125 5.125 C0.08486155 6.06893204 0.08486155 6.06893204 -2.875 8.25 C-2.875 7.59 -2.875 6.93 -2.875 6.25 C-3.535 6.25 -4.195 6.25 -4.875 6.25 C-4.917721 4.58388095 -4.91563832 2.91617115 -4.875 1.25 C-3.875 0.25 -3.875 0.25 0 0 Z " fill="#B70303" transform="translate(77.875,41.75)"/>
<path d="M0 0 C0.99 0 1.98 0 3 0 C3.33 1.32 3.66 2.64 4 4 C-1.04615385 8.92307692 -1.04615385 8.92307692 -5.875 9.3125 C-6.90625 9.209375 -7.9375 9.10625 -9 9 C-8.67 8.01 -8.34 7.02 -8 6 C-5.69631264 4.93347808 -3.35981813 3.93578995 -1 3 C-0.01 2.34 0.98 1.68 2 1 C1.34 0.67 0.68 0.34 0 0 Z " fill="#B71417" transform="translate(89,118)"/>
<path d="M0 0 C0.33 1.32 0.66 2.64 1 4 C2.65 3.67 4.3 3.34 6 3 C6.99 4.485 6.99 4.485 8 6 C6.824375 6.5259375 6.824375 6.5259375 5.625 7.0625 C2.16452728 9.61665844 1.85463256 11.88222494 1 16 C0.67 16 0.34 16 0 16 C-1.125 8.25 -1.125 8.25 0 6 C-0.83333333 3.83333333 -0.83333333 3.83333333 -3 3 C-2.01 2.01 -1.02 1.02 0 0 Z " fill="#4567AD" transform="translate(39,86)"/>
<path d="M0 0 C3.96 0 7.92 0 12 0 C11.34 1.65 10.68 3.3 10 5 C6.4780279 5.08004482 3.38018531 5.04005702 0 4 C0 2.68 0 1.36 0 0 Z " fill="#023392" transform="translate(40,86)"/>
<path d="M0 0 C0.33 1.32 0.66 2.64 1 4 C1.598125 4.12375 2.19625 4.2475 2.8125 4.375 C5 5 5 5 8 7 C10.0492094 7.45139459 10.0492094 7.45139459 12.1875 7.625 C13.445625 7.74875 14.70375 7.8725 16 8 C16 8.33 16 8.66 16 9 C9.61194641 9.5323378 4.21326244 9.0505924 -1 5 C-2.22265625 2.859375 -2.22265625 2.859375 -3 1 C-2.01 0.67 -1.02 0.34 0 0 Z " fill="#526FAD" transform="translate(17,100)"/>
<path d="M0 0 C0.66 1.32 1.32 2.64 2 4 C1.01 4 0.02 4 -1 4 C-1 5.32 -1 6.64 -1 8 C-3.31 8 -5.62 8 -8 8 C-5.92856799 3.96615872 -4.03384128 2.07143201 0 0 Z " fill="#023293" transform="translate(56,119)"/>
<path d="M0 0 C2.31 0.33 4.62 0.66 7 1 C7 3.31 7 5.62 7 8 C6.01 8.33 5.02 8.66 4 9 C3.34 7.02 2.68 5.04 2 3 C1.34 3 0.68 3 0 3 C0 2.01 0 1.02 0 0 Z " fill="#B50404" transform="translate(110,88)"/>
<path d="M0 0 C0.99 0.33 1.98 0.66 3 1 C2.67 1.66 2.34 2.32 2 3 C1.01 3 0.02 3 -1 3 C-1.433125 3.9590625 -1.433125 3.9590625 -1.875 4.9375 C-3 7 -3 7 -5 8 C-6.71233688 7.9129796 -8.42175406 7.75902838 -10.125 7.5625 C-11.03507812 7.46066406 -11.94515625 7.35882813 -12.8828125 7.25390625 C-13.58148438 7.17011719 -14.28015625 7.08632813 -15 7 C-14.67 6.34 -14.34 5.68 -14 5 C-12.9275 5.061875 -11.855 5.12375 -10.75 5.1875 C-6.76979873 4.98848994 -5.89497784 4.48140958 -3 2 C-2.01 2 -1.02 2 0 2 C0 1.34 0 0.68 0 0 Z " fill="#B7292B" transform="translate(90,35)"/>
<path d="M0 0 C0.66 0.33 1.32 0.66 2 1 C1.67 3.31 1.34 5.62 1 8 C1.66 7.67 2.32 7.34 3 7 C3.33 8.65 3.66 10.3 4 12 C2.68 12.33 1.36 12.66 0 13 C-1.06671952 9.79984144 -0.94845472 8.11455706 -0.5625 4.8125 C-0.46066406 3.91144531 -0.35882813 3.01039062 -0.25390625 2.08203125 C-0.17011719 1.39496094 -0.08632812 0.70789063 0 0 Z " fill="#B60203" transform="translate(105,75)"/>
<path d="M0 0 C2.31 0 4.62 0 7 0 C7 0.99 7 1.98 7 3 C5.35 3 3.7 3 2 3 C2.20625 3.556875 2.4125 4.11375 2.625 4.6875 C3.10695211 7.659538 2.26565028 9.31979941 1 12 C0.67 12 0.34 12 0 12 C0 8.04 0 4.08 0 0 Z " fill="#B30203" transform="translate(89,92)"/>
<path d="M0 0 C0.33 0 0.66 0 1 0 C1 4.95 1 9.9 1 15 C-3.62 15 -8.24 15 -13 15 C-13 14.67 -13 14.34 -13 14 C-12.21753906 13.93941406 -11.43507812 13.87882812 -10.62890625 13.81640625 C-9.61699219 13.73261719 -8.60507812 13.64882812 -7.5625 13.5625 C-6.55316406 13.48128906 -5.54382812 13.40007812 -4.50390625 13.31640625 C-2.06359221 13.26788532 -2.06359221 13.26788532 -1 12 C-0.76572222 9.98405418 -0.58663876 7.961526 -0.4375 5.9375 C-0.35371094 4.83277344 -0.26992188 3.72804688 -0.18359375 2.58984375 C-0.12300781 1.73519531 -0.06242187 0.88054687 0 0 Z " fill="#8FA2C6" transform="translate(53,71)"/>
<path d="M0 0 C1.32 0.33 2.64 0.66 4 1 C4 3 4 5 4 7 C1.03 6.505 1.03 6.505 -2 6 C-1.49396008 3.83125748 -1.00016187 2.00032373 0 0 Z " fill="#023294" transform="translate(36,106)"/>
<path d="M0 0 C0 0.66 0 1.32 0 2 C-1.32 2.33 -2.64 2.66 -4 3 C-3.34 3.33 -2.68 3.66 -2 4 C-3.32 4.33 -4.64 4.66 -6 5 C-6.33 4.34 -6.66 3.68 -7 3 C-8.65 3.33 -10.3 3.66 -12 4 C-9.83602181 0.75403272 -9.54508198 0.55807016 -6 -0.25 C-4.948125 -0.50523438 -4.948125 -0.50523438 -3.875 -0.765625 C-2 -1 -2 -1 0 0 Z " fill="#023498" transform="translate(54,107)"/>
<path d="M0 0 C2.31 0 4.62 0 7 0 C7.33 0.99 7.66 1.98 8 3 C4.625 3.625 4.625 3.625 1 4 C0.34 3.34 -0.32 2.68 -1 2 C-0.67 1.34 -0.34 0.68 0 0 Z " fill="#3A5DA4" transform="translate(39,53)"/>
<path d="M0 0 C0.33 0.66 0.66 1.32 1 2 C3.02463255 2.65213292 3.02463255 2.65213292 5 3 C5 3.66 5 4.32 5 5 C3.35 5.66 1.7 6.32 0 7 C-0.99 5.68 -1.98 4.36 -3 3 C-2.01 2.01 -1.02 1.02 0 0 Z " fill="#003198" transform="translate(20,96)"/>
<path d="M0 0 C2.62124186 4.85888735 3 9.51337306 3 15 C0.03090402 11.72698081 -0.34354794 9.61934238 -0.1875 5.25 C-0.16042969 4.26515625 -0.13335937 3.2803125 -0.10546875 2.265625 C-0.07066406 1.51796875 -0.03585937 0.7703125 0 0 Z " fill="#3A5A9A" transform="translate(11,86)"/>
<path d="M0 0 C0.33 0 0.66 0 1 0 C1.07347656 1.24716797 1.07347656 1.24716797 1.1484375 2.51953125 C1.22320312 3.60621094 1.29796875 4.69289063 1.375 5.8125 C1.44460937 6.89144531 1.51421875 7.97039062 1.5859375 9.08203125 C1.81195733 12.18626186 1.81195733 12.18626186 4 15 C3.01 15.495 3.01 15.495 2 16 C2 15.34 2 14.68 2 14 C0.68 14 -0.64 14 -2 14 C-2 12.35 -2 10.7 -2 9 C-1.67 9 -1.34 9 -1 9 C-0.67 6.03 -0.34 3.06 0 0 Z " fill="#B8494B" transform="translate(74,70)"/>
<path d="M0 0 C4.875 1.75 4.875 1.75 6 4 C3.36 4.66 0.72 5.32 -2 6 C-2.33 5.34 -2.66 4.68 -3 4 C-2.67 3.34 -2.34 2.68 -2 2 C-1.34 2 -0.68 2 0 2 C0 1.34 0 0.68 0 0 Z " fill="#C02E30" transform="translate(107,25)"/>
<path d="M0 0 C0.66 0.33 1.32 0.66 2 1 C2 1.66 2 2.32 2 3 C0.67732273 4.01405257 -0.65724831 5.01268258 -2 6 C-2.66 6.99 -3.32 7.98 -4 9 C-4 6.69 -4 4.38 -4 2 C-2.125 0.9375 -2.125 0.9375 0 0 Z " fill="#4163A4" transform="translate(29,40)"/>
<path d="M0 0 C0.66 1.32 1.32 2.64 2 4 C-0.475 5.485 -0.475 5.485 -3 7 C-3.33 6.01 -3.66 5.02 -4 4 C-2.68 2.68 -1.36 1.36 0 0 Z " fill="#003390" transform="translate(38,89)"/>
<path d="M0 0 C1.32 0.99 2.64 1.98 4 3 C3.195625 3.474375 2.39125 3.94875 1.5625 4.4375 C-0.84753488 5.76900154 -0.84753488 5.76900154 -2 7 C-3.66617115 7.04063832 -5.33388095 7.042721 -7 7 C-5.6875 5.5 -5.6875 5.5 -4 4 C-3.01 4 -2.02 4 -1 4 C-0.67 2.68 -0.34 1.36 0 0 Z " fill="#C66062" transform="translate(76,89)"/>
<path d="M0 0 C-0.33 0.99 -0.66 1.98 -1 3 C-3.0625 3.6875 -3.0625 3.6875 -5 4 C-5.33 5.32 -5.66 6.64 -6 8 C-6.66 8 -7.32 8 -8 8 C-5.18918919 0 -5.18918919 0 0 0 Z " fill="#526EA7" transform="translate(12,50)"/>
<path d="M0 0 C0.99 0 1.98 0 3 0 C3.33 1.65 3.66 3.3 4 5 C3.01 5.495 3.01 5.495 2 6 C1.01 5.01 0.02 4.02 -1 3 C-0.67 2.01 -0.34 1.02 0 0 Z " fill="#B40201" transform="translate(88,10)"/>
<path d="M0 0 C0.99 0 1.98 0 3 0 C2.67 2.64 2.34 5.28 2 8 C2.66 8.33 3.32 8.66 4 9 C2.68 9.33 1.36 9.66 0 10 C0 6.7 0 3.4 0 0 Z " fill="#BA2E2C" transform="translate(102,77)"/>
<path d="M0 0 C0.33 0.66 0.66 1.32 1 2 C-0.4375 4.625 -0.4375 4.625 -2 7 C-2.66 6.34 -3.32 5.68 -4 5 C-3.8125 2.9375 -3.8125 2.9375 -3 1 C-2.01 0.67 -1.02 0.34 0 0 Z " fill="#C03F44" transform="translate(116,96)"/>
<path d="M0 0 C0.33 1.32 0.66 2.64 1 4 C0.34 4 -0.32 4 -1 4 C-1.33 4.66 -1.66 5.32 -2 6 C-3.98 5.34 -5.96 4.68 -8 4 C-8 3.67 -8 3.34 -8 3 C-6.865625 2.690625 -5.73125 2.38125 -4.5625 2.0625 C-1.21224901 1.37075469 -1.21224901 1.37075469 0 0 Z " fill="#BC3F44" transform="translate(101,87)"/>
<path d="M0 0 C2.97 0.495 2.97 0.495 6 1 C6.33 1.99 6.66 2.98 7 4 C5.35 4 3.7 4 2 4 C2 3.34 2 2.68 2 2 C1.34 2 0.68 2 0 2 C0 1.34 0 0.68 0 0 Z " fill="#B00203" transform="translate(78,42)"/>
<path d="M0 0 C0.99 0 1.98 0 3 0 C3.33 1.32 3.66 2.64 4 4 C2.68 4.99 1.36 5.98 0 7 C-0.33 5.68 -0.66 4.36 -1 3 C-0.01 2.34 0.98 1.68 2 1 C1.34 0.67 0.68 0.34 0 0 Z " fill="#BF3B3E" transform="translate(89,118)"/>
<path d="M0 0 C-0.6875 1.9375 -0.6875 1.9375 -2 4 C-4.625 4.75 -4.625 4.75 -7 5 C-2.25 0 -2.25 0 0 0 Z " fill="#34559A" transform="translate(22,25)"/>
<path d="M0 0 C4.455 0.99 4.455 0.99 9 2 C8.67 2.66 8.34 3.32 8 4 C3.91927658 3.44855089 3.08669204 3.08669204 0 0 Z " fill="#BF5B5E" transform="translate(68,124)"/>
<path d="M0 0 C1.98 0 3.96 0 6 0 C6 0.66 6 1.32 6 2 C4.1875 3.0625 4.1875 3.0625 2 4 C1.01 3.67 0.02 3.34 -1 3 C-0.67 2.01 -0.34 1.02 0 0 Z " fill="#21479D" transform="translate(41,106)"/>
<path d="M0 0 C1.32 0.66 2.64 1.32 4 2 C3.34 3.32 2.68 4.64 2 6 C1.67 5.34 1.34 4.68 1 4 C0.34 4 -0.32 4 -1 4 C-0.67 2.68 -0.34 1.36 0 0 Z " fill="#B82323" transform="translate(74,44)"/>
</svg>
